<?xml version="1.0" encoding="iso-8859-1"?>
<!-- Uploaded to: SVG Repo, www.svgrepo.com, Generator: SVG Repo Mixer Tools -->
<svg fill="#000000" height="800px" width="800px" version="1.1" id="Layer_1" xmlns="http://www.w3.org/2000/svg" xmlns:xlink="http://www.w3.org/1999/xlink" 
	 viewBox="0 0 512 512" xml:space="preserve">
<g>
	<g>
		<path d="M511.746,374.302l-39.385-242.905c-1.547-9.535-9.779-16.542-19.439-16.542H76.029l3.194,19.692l3.193,19.692
			l32.999,203.52l3.194,19.692l3.193,19.692h370.505c5.774,0,11.256-2.534,14.998-6.93
			C511.046,385.818,512.67,380.001,511.746,374.302z M393.846,275.693H196.922c-10.875,0-19.692-8.818-19.692-19.692
			c0-10.877,8.817-19.692,19.692-19.692h196.923c10.875,0,19.692,8.816,19.692,19.692
			C413.538,266.875,404.721,275.693,393.846,275.693z"/>
	</g>
</g>
<g>
	<g>
		<path d="M78.708,377.451l-3.193-19.691L59.175,256.981L49.2,195.463l-9.975-61.519L0.254,374.3
			c-0.924,5.699,0.7,11.516,4.441,15.913c3.742,4.398,9.224,6.93,14.998,6.93h62.209L78.708,377.451z"/>
	</g>
</g>
</svg>