<?xml version="1.0" encoding="utf-8"?><!-- Uploaded to: SVG Repo, www.svgrepo.com, Generator: SVG Repo Mixer Tools -->
<svg fill="#000000" width="800px" height="800px" viewBox="0 0 24 24" id="file-done-3" data-name="Flat Line" xmlns="http://www.w3.org/2000/svg" class="icon flat-line"><path id="secondary" d="M19,3H10L6,7v6a4.19,4.19,0,0,1,.5,0,7,7,0,0,1,7,7,6.63,6.63,0,0,1-.08,1H19a1,1,0,0,0,1-1V4A1,1,0,0,0,19,3Z" style="fill: rgb(44, 169, 188); stroke-width: 2;"></path><polyline id="primary" points="4 19 6 21 10 17" style="fill: none; stroke: rgb(0, 0, 0); stroke-linecap: round; stroke-linejoin: round; stroke-width: 2;"></polyline><path id="primary-2" data-name="primary" d="M16,13H13m3-4H10" style="fill: none; stroke: rgb(0, 0, 0); stroke-linecap: round; stroke-linejoin: round; stroke-width: 2;"></path><path id="primary-3" data-name="primary" d="M13,21h6a1,1,0,0,0,1-1V4a1,1,0,0,0-1-1H10L6,7v7" style="fill: none; stroke: rgb(0, 0, 0); stroke-linecap: round; stroke-linejoin: round; stroke-width: 2;"></path></svg>